<mxfile host="app.diagrams.net" agent="Mozilla/5.0 (Macintosh; Intel Mac OS X 10_15_7) AppleWebKit/537.36 (KHTML, like Gecko) Chrome/136.0.0.0 Safari/537.36" version="27.0.6">
  <diagram id="POd_VmACm_ELJilLZUvX" name="Hexagonal">
    <mxGraphModel dx="998" dy="861" grid="1" gridSize="10" guides="1" tooltips="1" connect="1" arrows="1" fold="1" page="1" pageScale="1" pageWidth="850" pageHeight="1100" math="0" shadow="0">
      <root>
        <mxCell id="0" />
        <mxCell id="1" parent="0" />
        <mxCell id="nNnwuQH6DUJucTWPvERn-29" value="" style="rounded=0;whiteSpace=wrap;html=1;strokeColor=none;" vertex="1" parent="1">
          <mxGeometry x="45" y="280" width="760" height="360" as="geometry" />
        </mxCell>
        <mxCell id="nNnwuQH6DUJucTWPvERn-1" value="" style="shape=hexagon;perimeter=hexagonPerimeter2;whiteSpace=wrap;html=1;fixedSize=1;fillColor=#dae8fc;strokeColor=#6c8ebf;" vertex="1" parent="1">
          <mxGeometry x="245" y="320" width="360" height="280" as="geometry" />
        </mxCell>
        <mxCell id="nNnwuQH6DUJucTWPvERn-2" value="" style="shape=hexagon;perimeter=hexagonPerimeter2;whiteSpace=wrap;html=1;fixedSize=1;fillColor=#fff2cc;strokeColor=#d6b656;" vertex="1" parent="1">
          <mxGeometry x="315" y="380" width="220" height="173.34" as="geometry" />
        </mxCell>
        <mxCell id="nNnwuQH6DUJucTWPvERn-23" style="edgeStyle=orthogonalEdgeStyle;rounded=0;orthogonalLoop=1;jettySize=auto;html=1;exitX=1;exitY=0.5;exitDx=0;exitDy=0;entryX=0.375;entryY=0;entryDx=0;entryDy=0;" edge="1" parent="1" source="nNnwuQH6DUJucTWPvERn-4" target="nNnwuQH6DUJucTWPvERn-19">
          <mxGeometry relative="1" as="geometry" />
        </mxCell>
        <mxCell id="nNnwuQH6DUJucTWPvERn-4" value="Port" style="rounded=1;whiteSpace=wrap;html=1;fillColor=#e1d5e7;strokeColor=#9673a6;" vertex="1" parent="1">
          <mxGeometry x="285" y="414.17" width="80" height="40" as="geometry" />
        </mxCell>
        <mxCell id="nNnwuQH6DUJucTWPvERn-24" style="edgeStyle=orthogonalEdgeStyle;rounded=0;orthogonalLoop=1;jettySize=auto;html=1;exitX=1;exitY=0.5;exitDx=0;exitDy=0;entryX=0.375;entryY=1;entryDx=0;entryDy=0;" edge="1" parent="1" source="nNnwuQH6DUJucTWPvERn-5" target="nNnwuQH6DUJucTWPvERn-19">
          <mxGeometry relative="1" as="geometry" />
        </mxCell>
        <mxCell id="nNnwuQH6DUJucTWPvERn-5" value="Port" style="rounded=1;whiteSpace=wrap;html=1;fillColor=#e1d5e7;strokeColor=#9673a6;" vertex="1" parent="1">
          <mxGeometry x="295" y="505.83" width="80" height="40" as="geometry" />
        </mxCell>
        <mxCell id="nNnwuQH6DUJucTWPvERn-16" value="" style="edgeStyle=orthogonalEdgeStyle;rounded=0;orthogonalLoop=1;jettySize=auto;html=1;exitX=1;exitY=0.5;exitDx=0;exitDy=0;entryX=0;entryY=0.5;entryDx=0;entryDy=0;" edge="1" parent="1" source="nNnwuQH6DUJucTWPvERn-6" target="nNnwuQH6DUJucTWPvERn-15">
          <mxGeometry relative="1" as="geometry" />
        </mxCell>
        <mxCell id="nNnwuQH6DUJucTWPvERn-6" value="Port" style="rounded=1;whiteSpace=wrap;html=1;fillColor=#e1d5e7;strokeColor=#9673a6;" vertex="1" parent="1">
          <mxGeometry x="485" y="414.17" width="80" height="40" as="geometry" />
        </mxCell>
        <mxCell id="nNnwuQH6DUJucTWPvERn-18" value="" style="edgeStyle=orthogonalEdgeStyle;rounded=0;orthogonalLoop=1;jettySize=auto;html=1;exitX=1;exitY=0.5;exitDx=0;exitDy=0;entryX=0;entryY=0.5;entryDx=0;entryDy=0;" edge="1" parent="1" source="nNnwuQH6DUJucTWPvERn-7" target="nNnwuQH6DUJucTWPvERn-17">
          <mxGeometry relative="1" as="geometry" />
        </mxCell>
        <mxCell id="nNnwuQH6DUJucTWPvERn-7" value="Port" style="rounded=1;whiteSpace=wrap;html=1;fillColor=#e1d5e7;strokeColor=#9673a6;" vertex="1" parent="1">
          <mxGeometry x="485" y="505.83" width="80" height="40" as="geometry" />
        </mxCell>
        <mxCell id="nNnwuQH6DUJucTWPvERn-12" value="" style="edgeStyle=orthogonalEdgeStyle;rounded=0;orthogonalLoop=1;jettySize=auto;html=1;exitX=1;exitY=0.5;exitDx=0;exitDy=0;entryX=0;entryY=0.5;entryDx=0;entryDy=0;" edge="1" parent="1" source="nNnwuQH6DUJucTWPvERn-10" target="nNnwuQH6DUJucTWPvERn-4">
          <mxGeometry relative="1" as="geometry" />
        </mxCell>
        <mxCell id="nNnwuQH6DUJucTWPvERn-10" value="REST" style="rounded=1;whiteSpace=wrap;html=1;fillColor=#d5e8d4;strokeColor=#82b366;" vertex="1" parent="1">
          <mxGeometry x="85" y="380" width="80" height="40" as="geometry" />
        </mxCell>
        <mxCell id="nNnwuQH6DUJucTWPvERn-11" value="Adapter" style="text;html=1;align=center;verticalAlign=middle;whiteSpace=wrap;rounded=0;" vertex="1" parent="1">
          <mxGeometry x="395" y="330" width="60" height="30" as="geometry" />
        </mxCell>
        <mxCell id="nNnwuQH6DUJucTWPvERn-14" value="" style="edgeStyle=orthogonalEdgeStyle;rounded=0;orthogonalLoop=1;jettySize=auto;html=1;exitX=1;exitY=0.5;exitDx=0;exitDy=0;entryX=0;entryY=0.5;entryDx=0;entryDy=0;" edge="1" parent="1" source="nNnwuQH6DUJucTWPvERn-13" target="nNnwuQH6DUJucTWPvERn-5">
          <mxGeometry relative="1" as="geometry" />
        </mxCell>
        <mxCell id="nNnwuQH6DUJucTWPvERn-13" value="Message Broker" style="rounded=1;whiteSpace=wrap;html=1;fillColor=#d5e8d4;strokeColor=#82b366;" vertex="1" parent="1">
          <mxGeometry x="85" y="540" width="80" height="40" as="geometry" />
        </mxCell>
        <mxCell id="nNnwuQH6DUJucTWPvERn-15" value="REST" style="rounded=1;whiteSpace=wrap;html=1;fillColor=#d5e8d4;strokeColor=#82b366;" vertex="1" parent="1">
          <mxGeometry x="685" y="380" width="80" height="40" as="geometry" />
        </mxCell>
        <mxCell id="nNnwuQH6DUJucTWPvERn-17" value="Message Broker" style="rounded=1;whiteSpace=wrap;html=1;fillColor=#d5e8d4;strokeColor=#82b366;" vertex="1" parent="1">
          <mxGeometry x="685" y="540" width="80" height="40" as="geometry" />
        </mxCell>
        <mxCell id="nNnwuQH6DUJucTWPvERn-25" style="edgeStyle=orthogonalEdgeStyle;rounded=0;orthogonalLoop=1;jettySize=auto;html=1;exitX=0.625;exitY=0;exitDx=0;exitDy=0;entryX=0;entryY=0.5;entryDx=0;entryDy=0;" edge="1" parent="1" source="nNnwuQH6DUJucTWPvERn-19" target="nNnwuQH6DUJucTWPvERn-6">
          <mxGeometry relative="1" as="geometry" />
        </mxCell>
        <mxCell id="nNnwuQH6DUJucTWPvERn-27" style="edgeStyle=orthogonalEdgeStyle;rounded=0;orthogonalLoop=1;jettySize=auto;html=1;exitX=0.625;exitY=1;exitDx=0;exitDy=0;entryX=0;entryY=0.5;entryDx=0;entryDy=0;" edge="1" parent="1" source="nNnwuQH6DUJucTWPvERn-19" target="nNnwuQH6DUJucTWPvERn-7">
          <mxGeometry relative="1" as="geometry" />
        </mxCell>
        <mxCell id="nNnwuQH6DUJucTWPvERn-19" value="Domain" style="shape=hexagon;perimeter=hexagonPerimeter2;whiteSpace=wrap;html=1;fixedSize=1;fillColor=#f8cecc;strokeColor=#b85450;" vertex="1" parent="1">
          <mxGeometry x="386.25" y="454.16999999999996" width="77.49" height="51.66" as="geometry" />
        </mxCell>
        <mxCell id="nNnwuQH6DUJucTWPvERn-28" value="Application" style="text;html=1;align=center;verticalAlign=middle;whiteSpace=wrap;rounded=0;" vertex="1" parent="1">
          <mxGeometry x="395" y="390" width="60" height="30" as="geometry" />
        </mxCell>
      </root>
    </mxGraphModel>
  </diagram>
</mxfile>
